<?xml version="1.0" encoding="UTF-8" standalone="no"?>
<!-- Created with Inkscape (http://www.inkscape.org/) -->

<svg
   width="1cm"
   height="1cm"
   viewBox="0 0 10 9.9999999"
   version="1.1"
   id="svg5"
   xmlns="http://www.w3.org/2000/svg"
   xmlns:svg="http://www.w3.org/2000/svg">
  <defs
     id="defs2" />
  <g
     id="layer1">
    <g
       id="g15204"
       transform="translate(0.18045111)">
      <g
         aria-label="P"
         id="g11566"
         style="font-size:14.3012px;font-family:FreeSerif;-inkscape-font-specification:'FreeSerif, Normal';fill:#371c19;fill-opacity:1;stroke:none;stroke-width:0.405388;stroke-linecap:round;stroke-linejoin:round;stroke-opacity:1"
         transform="translate(0.87789038)">
        <path
           d="m 8.7612074,2.8548293 c 0,-2.07367397 -2.2023848,-2.58851717 -3.7469144,-2.58851717 H 1.2387763 v 0.2717228 C 2.297065,0.65244453 2.440077,0.79545653 2.440077,1.8251429 v 6.1924196 c 0,1.2013008 -0.1144096,1.3443128 -1.2013007,1.4444212 V 9.7337065 H 5.2431122 V 9.4619837 C 4.1133174,9.4190801 3.8987994,9.2188633 3.8987994,8.1748757 V 5.5720573 c 0.3718312,0.028602 0.6149516,0.042904 0.9867828,0.042904 3.289276,0 3.8756252,-1.6589392 3.8756252,-2.760132 z m -4.862408,-1.573132 c 0,-0.38613237 0.1001084,-0.48624077 0.4862408,-0.48624077 1.930662,0 2.8173364,0.67215637 2.8173364,2.14517997 0,1.3872164 -0.8437708,2.1022764 -2.4884088,2.1022764 -0.286024,0 -0.4862408,-0.014301 -0.8151684,-0.042904 z"
           style="fill:#371c19;fill-opacity:1;stroke:none;stroke-width:0.405389;stroke-opacity:1"
           id="path11564" />
      </g>
      <g
         aria-label="P"
         id="text2050"
         style="font-size:14.3012px;font-family:FreeSerif;-inkscape-font-specification:'FreeSerif, Normal';fill:#eddcda;fill-opacity:1;stroke:none;stroke-width:0.405388;stroke-linecap:round;stroke-linejoin:round;stroke-opacity:1"
         transform="translate(-0.18044296)">
        <path
           d="m 8.7612074,2.8548293 c 0,-2.07367397 -2.2023848,-2.58851717 -3.7469144,-2.58851717 H 1.2387763 v 0.2717228 C 2.297065,0.65244453 2.440077,0.79545653 2.440077,1.8251429 v 6.1924196 c 0,1.2013008 -0.1144096,1.3443128 -1.2013007,1.4444212 V 9.7337065 H 5.2431122 V 9.4619837 C 4.1133174,9.4190801 3.8987994,9.2188633 3.8987994,8.1748757 V 5.5720573 c 0.3718312,0.028602 0.6149516,0.042904 0.9867828,0.042904 3.289276,0 3.8756252,-1.6589392 3.8756252,-2.760132 z m -4.862408,-1.573132 c 0,-0.38613237 0.1001084,-0.48624077 0.4862408,-0.48624077 1.930662,0 2.8173364,0.67215637 2.8173364,2.14517997 0,1.3872164 -0.8437708,2.1022764 -2.4884088,2.1022764 -0.286024,0 -0.4862408,-0.014301 -0.8151684,-0.042904 z"
           style="fill:#eddcda;fill-opacity:1;stroke:none;stroke-width:0.405389;stroke-opacity:1"
           id="path7910" />
      </g>
      <g
         aria-label="R"
         id="text1992"
         style="font-size:14.3012px;font-family:FreeSerif;-inkscape-font-specification:'FreeSerif, Normal';fill:#d03d45;fill-opacity:1;stroke:none;stroke-width:0.405388;stroke-linecap:round;stroke-linejoin:round;stroke-opacity:1"
         transform="translate(1.178195)">
        <path
           d="M 2.7689362,0.26631213 H -1.178195 v 0.2717228 c 1.07259004,0.1144096 1.21560204,0.2717228 1.21560204,1.28710797 v 6.1924196 c 0,1.1869996 -0.143012,1.358614 -1.21560204,1.4444212 V 9.7337065 H 2.7832374 V 9.4619837 C 1.682045,9.3904777 1.4961294,9.2045621 1.4961294,8.1748757 V 5.3575393 L 2.2969966,5.3289369 5.7006822,9.7337065 H 8.0031754 V 9.4619837 C 7.4597298,9.4190801 7.1737058,9.2760681 6.758971,8.7898273 L 3.8129238,5.1716237 C 4.399273,5.0572141 6.401441,4.7568889 6.401441,2.7833233 6.401441,0.63814333 4.1704538,0.26631213 2.7689362,0.26631213 Z M 1.4961294,4.8283949 V 1.3102997 c 0,-0.40043357 0.1573132,-0.51484317 0.7293612,-0.51484317 1.78765,0 2.6171196,0.61495157 2.6171196,1.95926437 0,1.6732404 -1.2299032,2.0307704 -3.3464808,2.073674 z"
           style="fill:#d03d45;fill-opacity:1;stroke:none;stroke-width:0.405389;stroke-opacity:1"
           id="path7860" />
      </g>
    </g>
  </g>
</svg>
